<svg width="17" height="16" viewBox="0 0 17 16" fill="none" xmlns="http://www.w3.org/2000/svg">
<g opacity="0.7">
<path d="M8.50008 13.76C11.7696 13.76 14.4201 11.1095 14.4201 7.83998C14.4201 4.57046 11.7696 1.91998 8.50008 1.91998C5.23055 1.91998 2.58008 4.57046 2.58008 7.83998C2.58008 11.1095 5.23055 13.76 8.50008 13.76Z" stroke="white" stroke-width="0.7" stroke-linecap="round" stroke-linejoin="round"/>
<path d="M9.09588 5.21606C9.09248 5.37111 9.0281 5.51857 8.91668 5.62642C8.80519 5.73426 8.65568 5.79376 8.50061 5.79204C8.38759 5.78827 8.27821 5.75133 8.18605 5.68579C8.09383 5.62025 8.02304 5.52901 7.9824 5.42349C7.9417 5.31796 7.933 5.20279 7.95738 5.09235C7.9817 4.98191 8.03802 4.88112 8.1193 4.80247C8.20058 4.72382 8.30317 4.67084 8.41434 4.65013C8.52551 4.62941 8.64039 4.64188 8.74452 4.68599C8.84864 4.73009 8.93748 4.80387 8.99994 4.89813C9.06247 4.99239 9.09581 5.10297 9.09588 5.21606ZM8.04628 10.5793V7.13609C8.04455 7.07561 8.05504 7.01539 8.07719 6.95913C8.09933 6.90288 8.13261 6.85168 8.17511 6.80867C8.21754 6.7656 8.26829 6.73155 8.32423 6.70864C8.38016 6.68572 8.4402 6.67433 8.50061 6.67523C8.56026 6.67517 8.61933 6.6872 8.67418 6.71062C8.72903 6.73398 8.77863 6.76822 8.81991 6.81129C8.86119 6.85437 8.89325 6.90531 8.91431 6.96112C8.93536 7.01693 8.94484 7.07645 8.94221 7.13609V10.5793C8.94221 10.6381 8.93063 10.6963 8.90816 10.7507C8.88564 10.805 8.85261 10.8544 8.81101 10.896C8.76941 10.9376 8.72007 10.9706 8.66573 10.9931C8.61133 11.0156 8.55309 11.0272 8.49428 11.0272C8.43546 11.0272 8.37716 11.0156 8.32282 10.9931C8.26848 10.9706 8.21908 10.9376 8.17748 10.896C8.13588 10.8544 8.10285 10.805 8.08039 10.7507C8.05786 10.6963 8.04628 10.6381 8.04628 10.5793Z" fill="white"/>
</g>
</svg>
