<svg width="25" height="24" viewBox="0 0 25 24" fill="none" xmlns="http://www.w3.org/2000/svg">
<path d="M8.5 5C8.5 2.79086 10.2909 1 12.5 1C14.7091 1 16.5 2.79086 16.5 5V12C16.5 14.2091 14.7091 16 12.5 16C10.2909 16 8.5 14.2091 8.5 12V5Z" fill="#111111"/>
<path d="M6.75 11.8438V12C6.75 13.525 7.3558 14.9875 8.43414 16.0659C9.51247 17.1442 10.975 17.75 12.5 17.75C14.025 17.75 15.4875 17.1442 16.5659 16.0659C17.6442 14.9875 18.25 13.525 18.25 12V11.8438C18.25 11.2915 18.6977 10.8438 19.25 10.8438H19.75C20.3023 10.8438 20.75 11.2915 20.75 11.8437V12C20.75 14.188 19.8808 16.2865 18.3336 17.8336C17.0842 19.0831 15.4753 19.8903 13.75 20.1548V22C13.75 22.5523 13.3023 23 12.75 23H12.25C11.6977 23 11.25 22.5523 11.25 22V20.1548C9.52471 19.8903 7.91579 19.0831 6.66637 17.8336C5.11919 16.2865 4.25 14.188 4.25 12V11.8438C4.25 11.2915 4.69772 10.8438 5.25 10.8438H5.75C6.30228 10.8438 6.75 11.2915 6.75 11.8438Z" fill="#111111"/>
</svg>
