<svg width="35" height="34" viewBox="0 0 35 34" fill="none" xmlns="http://www.w3.org/2000/svg">
<path d="M17.5 1.41669C19.8307 1.41669 21.8328 2.8239 22.7031 4.83508L11.8333 15.7049V7.08335C11.8333 3.95374 14.3703 1.41669 17.5 1.41669Z" fill="#FF3B30"/>
<path d="M9.35417 17C9.35417 17.3729 9.37972 17.7431 9.42989 18.1083L6.52362 21.0146C6.05755 19.7404 5.8125 18.3828 5.8125 17V16.7787C5.8125 15.9963 6.44677 15.3621 7.22917 15.3621H7.9375C8.71991 15.3621 9.35417 15.9963 9.35417 16.7787V17Z" fill="#FF3B30"/>
<path d="M10.876 26.6292L5.83762 31.6675C5.28437 32.2208 4.38739 32.2208 3.83416 31.6675L2.83242 30.6658C2.27917 30.1125 2.27917 29.2155 2.83242 28.6623L29.1623 2.33248C29.7155 1.77923 30.6125 1.77923 31.1657 2.33248L32.1675 3.3342C32.7207 3.88746 32.7207 4.78443 32.1675 5.33768L23.1667 14.3385V17C23.1667 20.1296 20.6296 22.6667 17.5 22.6667C16.7147 22.6667 15.9667 22.507 15.2869 22.2183L13.442 24.0631C14.6662 24.7665 16.0635 25.1459 17.5 25.1459C19.6604 25.1459 21.7323 24.2876 23.2599 22.76C24.7876 21.2323 25.6458 19.1604 25.6458 17V16.7787C25.6458 15.9963 26.2801 15.3621 27.0625 15.3621H27.7708C28.5533 15.3621 29.1875 15.9963 29.1875 16.7786V17C29.1875 20.0997 27.9561 23.0726 25.7643 25.2643C23.9943 27.0344 21.715 28.1779 19.2708 28.5527V32.5834H15.7292V28.5527C13.9859 28.2855 12.3265 27.627 10.876 26.6292Z" fill="#FF3B30"/>
</svg>
